<?xml version="1.0" encoding="UTF-8"?><svg id="Layer_2" xmlns="http://www.w3.org/2000/svg" viewBox="0 0 500.01 95.26"><defs><style>.cls-1{fill:#d67256;}</style></defs><g id="Layer_2-2"><g id="Layer_1-2"><path class="cls-1" d="M22.01,76.88c-.67,3.36-4.38,4.42-7.32,4.63-12.2.86-11.23-5.89-11.16-15.48.03-4.13.1-10.03,1.12-14.08,5.94-23.46,48.75-2.01,56.45-18.55,3.49-7.51-1.61-14.95-9.52-15.89-13.47-1.61-29.75,1.17-43.46-.04C-2.49,16.53-3.12,1.55,8.69.62,19.48-.23,51.87-.61,61.45,2.23c21.93,6.5,28.92,37.83,7.14,49.5-3.6,1.93-7.08,2.37-10.69,3.99-.19.7.48.92.81,1.35,5.26,6.79,14.42,12.89,19.85,19.42,1.32,1.59,3.77,3.6.45,4.64-2.93.92-15.93.54-19.08-.31-5.11-1.39-25.54-23.98-31.11-29.19-2.13-2-4.7-3.87-6.81-5.96v31.21Z"/><path class="cls-1" d="M149.51,9.3c8.64.82,16.57,6.19,18.91,14.77,3.06,11.25-.87,22.29-12.65,25.66l15.76,26.87h-13.86l-15.77-26.6h-8.7l-.82.81v25.78h-12.5V9.3c9.53.67,20.24-.9,29.63,0ZM132.38,39.7c5.56-.42,15.75,1.12,20.39-2.17,5.44-3.86,4.78-13.49-1.76-15.62-4.01-1.31-7.41-.75-11.27-.64-2.45.07-4.92-.1-7.36-.02v18.45Z"/><path class="cls-1" d="M293.31,77.42c-1.92,15.38-18.29,20.18-31.53,16.82-5.13-1.3-12.77-5.8-13.01-11.62l11-2.8c3.19,5.46,9.47,6.45,15.05,4.11,6.62-2.78,5.84-9.45,6.52-15.47l-5.27,4.23c-10.11,5.62-22.73,1.23-27.82-8.91-11.41-22.75,10.89-49.52,32.82-31.14l.35-4.54.82-.81,11.07.47v49.66h0ZM267.61,37.66c-12.09,1.82-12.29,22.82-2.03,26.19,19.36,6.34,21.71-29.15,2.03-26.19Z"/><path class="cls-1" d="M347.68,26.13l-11.6,1c-1.81-2.13-2.54-4.73-4.98-6.43-6.64-4.63-21.66-.51-17.01,9.38,2.48,5.28,17.89,7.06,23.62,9.53,18.3,7.91,14.68,32.34-3.61,36.75-11.71,2.82-27.17.05-33.11-11.48-.6-1.17-2.94-6.24-1.72-7.01l11.65-1.84c.52.16,2.06,4.54,3.04,5.67,4.55,5.25,18.75,6.43,21.59-.72,2.46-6.2-1.6-9.76-7.02-11.66-9.86-3.45-23.84-3.19-27.24-15.68-8.02-29.48,43.59-35.54,46.39-7.5h0Z"/><path class="cls-1" d="M463.48,70.09v24.97h-11.96V28.03c.99-1.58,10.97-.67,11.39-.24.14,1.52-.06,3.07.03,4.6.04.69-.35,1.7.81,1.35.24-.07,2.06-2.81,3.36-3.71,5.05-3.51,12.49-3.86,18.25-2.11,20.44,6.21,19.61,45.76-3.26,48.55-7.21.88-13.98-.48-18.61-6.36v-.02ZM467.48,62.85c7.27,6.43,18.38,2.39,19.79-7.28,1.59-10.91-3.76-19.81-15.77-17.38-9.64,1.95-10.4,19-4.01,24.66h-.01Z"/><path class="cls-1" d="M354.2,28.03c.48-1.57,3.05-.31,4.08-.27,2.62.09,5.26-.06,7.88,0l.27,6.51c6.33-11.1,24.95-10.08,29.51,2.03.47,1.24,1.75,5.89,1.75,6.93v32.57l-.82.81h-10.87l-.82-.81v-31.48c0-.18-1.26-2.95-1.52-3.37-3.2-5.11-11.64-4.07-15.03.42-.3.4-1.94,3.29-1.94,3.49v30.94l-.82.81h-10.87l-.82-.81V28.03h.02Z"/><path class="cls-1" d="M227.52,76.61v-30.67c0-.32-.9-3.22-1.14-3.75-2.97-6.56-14.03-6.11-17.11.19-.33.67-1.32,3.61-1.32,4.11v29.31l-.82.81h-11.15l-.55-48.85c3.97-.86,7.97,0,12,.23l.51,5.19c7.39-9.17,24.46-8.96,29.62,2.17.32.69,1.91,5.33,1.91,5.7v34.74l-.82.81h-11.15.02Z"/><path class="cls-1" d="M444.45,76.61h-10.06c-1.4-1.43-1.43-3.56-1.36-5.43-.55-.65-3.41,2.66-4.17,3.16-6.15,4.09-17.48,3.35-22.46-2.37-4.29-4.92-4.51-13.26-.54-18.43,6.01-7.82,18.04-5.43,26.6-6.82.71-7.95-4.51-12.41-12.33-9.87-3.03.98-3.64,4.79-5.33,5.04l-8.72-1.62c-.58-6.23,5.12-11.15,10.76-12.68,11.62-3.14,25.9.88,27.08,14.52.96,11.13-1.1,23.28.52,34.49h0ZM420.8,55.44c-11.89,3.28-5.06,16.42,5.92,11.34,4.33-2,5.44-5.8,5.54-10.23l-.59-1.11h-10.87Z"/><path class="cls-1" d="M188.38,27.76v48.85h-11.96V27.21c4.09.34,7.93.05,11.96.54h0Z"/><path class="cls-1" d="M179.53,7.26c12.88-2.65,12.85,14.78,2.06,14-8.71-.63-9.65-12.44-2.06-14Z"/></g></g></svg>